<svg height="512" viewBox="0 0 512 512" width="512" xmlns="http://www.w3.org/2000/svg"><g><g><path d="m352 360.64v115.36a19.994 19.994 0 0 1 -20 20h-232a19.994 19.994 0 0 1 -20-20v-440a19.994 19.994 0 0 1 20-20h232a19.994 19.994 0 0 1 20 20v115.36" fill="#96c8ef"/><circle cx="312" cy="256" fill="#e0e0e2" r="112"/><circle cx="312" cy="256" fill="#83d8f4" r="80"/><path d="m256 48h-80l-8-32h96z" fill="#57565c"/><circle cx="312" cy="256" fill="#d80027" r="16"/><path d="m296 120h32v24h-32z" fill="#cca400"/><path d="m392 176 16-16" fill="#96c8ef"/></g><g><path d="m240 464h-48a8 8 0 0 0 0 16h48a8 8 0 0 0 0-16z"/><path d="m320 233.376v-25.376a8 8 0 0 0 -16 0v25.376a24 24 0 1 0 16 0zm-8 30.624a8 8 0 1 1 8-8 8.009 8.009 0 0 1 -8 8z"/><path d="m402.28 177.04 11.38-11.38a8 8 0 1 0 -11.32-11.32l-11.38 11.38a120.28 120.28 0 0 0 -30.96-19.69v-110.03a28.031 28.031 0 0 0 -28-28h-232a28.031 28.031 0 0 0 -28 28v440a28.031 28.031 0 0 0 28 28h232a28.031 28.031 0 0 0 28-28v-110.03a119.9 119.9 0 0 0 42.28-188.93zm-148.53-153.04-4 16h-67.5l-4-16zm90.25 452a12.01 12.01 0 0 1 -12 12h-232a12.01 12.01 0 0 1 -12-12v-440a12.01 12.01 0 0 1 12-12h61.75l6.49 25.94a8 8 0 0 0 7.76 6.06h80a8 8 0 0 0 7.76-6.06l6.49-25.94h61.75a12.01 12.01 0 0 1 12 12v104.34c-2.63-.73-5.3-1.38-8-1.93v-18.41a8 8 0 0 0 -8-8h-32a8 8 0 0 0 -8 8v18.41a120.009 120.009 0 1 0 56 233.25zm-24-348v8h-16v-8zm-8 232a104 104 0 1 1 104-104 104.112 104.112 0 0 1 -104 104z"/><path d="m312 168a88 88 0 1 0 88 88 88.1 88.1 0 0 0 -88-88zm0 160a72 72 0 1 1 72-72 72.081 72.081 0 0 1 -72 72z"/></g></g></svg>